<?xml version="1.0" standalone="no"?>
<!DOCTYPE svg PUBLIC "-//W3C//DTD SVG 1.1//EN" "http://www.w3.org/Graphics/SVG/1.1/DTD/svg11.dtd" >
<svg xmlns="http://www.w3.org/2000/svg" xmlns:xlink="http://www.w3.org/1999/xlink" version="1.1">
<metadata></metadata>
<defs>
<font id="gothic_extrasc" horiz-adv-x="1556" >
<font-face units-per-em="2048" ascent="1638" descent="-410" />
<missing-glyph horiz-adv-x="204" />
<glyph horiz-adv-x="0" />
<glyph horiz-adv-x="682" />
<glyph unicode=" "  horiz-adv-x="204" />
<glyph unicode="&#x09;" horiz-adv-x="204" />
<glyph unicode="&#xa0;" horiz-adv-x="204" />
<glyph unicode="0" horiz-adv-x="204" d="M-20 0v29h245v-29h-245zM-20 78v168h245v-168h-245z" />
<glyph unicode="1" horiz-adv-x="204" d="M-20 1188v29h245v-29h-245zM-20 1266v168h245v-168h-245z" />
<glyph unicode="2" horiz-adv-x="819" d="M-20 0v29h860v-29h-860zM-20 78v168h860v-168h-860z" />
<glyph unicode="3" horiz-adv-x="819" d="M-20 1188v29h860v-29h-860zM-20 1266v168h860v-168h-860z" />
<glyph unicode="4" horiz-adv-x="819" d="M-20 0v168h860v-168h-860zM-20 217v29h860v-29h-860z" />
<glyph unicode="5" horiz-adv-x="819" d="M-20 1188v168h860v-168h-860zM-20 1405v29h860v-29h-860z" />
<glyph unicode="6" horiz-adv-x="245" d="M0 0v860h168v-860h-168zM217 0v860h29v-860h-29z" />
<glyph unicode="7" horiz-adv-x="245" d="M0 573v861h168v-861h-168zM217 573v861h29v-861h-29z" />
<glyph unicode="8" horiz-adv-x="245" d="M0 0v860h29v-860h-29zM78 0v860h168v-860h-168z" />
<glyph unicode="9" horiz-adv-x="245" d="M0 573v861h29v-861h-29zM78 573v861h168v-861h-168z" />
<glyph unicode="A" horiz-adv-x="2048" d="M174 647q0 184 64 291q24 0 63.5 2t54.5 2q92 0 101 -27q30 -3 53 -14q3 -1 8 -16q232 116 529 116q141 0 363.5 -30t408.5 -74q2 0 12.5 -1.5t15 -3.5t12 -5.5t10.5 -10.5t3 -18q0 -40 -39.5 -59t-101.5 -19q-71 0 -123 23q-50 -19 -113 -19q-47 0 -96 19q-12 -2 -35 -2 q-53 0 -74 12q9 -14 43 -53t52 -72t18 -67q0 -58 -24 -104t-70 -46q-4 -29 -26.5 -61.5t-51.5 -32.5q-13 0 -19 4q0 -30 -24.5 -67.5t-75.5 -37.5q-36 0 -77.5 29.5t-63.5 79.5q-58 -8 -97 -8q-71 0 -182 41.5t-160 48.5q2 -15 -0.5 -46.5t-7.5 -41.5q-9 -21 -43 -31 q3 -20 -8 -31q-13 -16 -111 -16q-29 0 -73.5 2t-50.5 2q-30 51 -47 149.5t-17 192.5zM215 819q-3 -26 5 -27q6 -1 13 17q8 20 14 10q4 -8 3 -26q-2 -27 8 -31q5 -2 9 8l1 4q10 36 16 35q6 0 3 -41q-2 -27 9 -32q5 -4 10 9l3 11q9 43 18 40q11 -4 11 -51q0 -41 12 -42 q14 -1 20 49l1 8q3 37 18 80t33 69q-21 9 -68 9q-18 0 -53 -1.5t-49 -1.5q-5 -10 -13 -24t-11 -20.5t-7 -20t-6 -31.5zM389 662q0 -85 15.5 -178t39.5 -117q47 0 58 22q-26 56 -41 140t-15 143q0 102 50 215q-20 8 -52 8q-55 -63 -55 -233zM406 514q0 7 7.5 12.5t16.5 5.5 q10 0 16 -6l5 -18q-6 6 -17 6q-14 0 -24 -14zM418 471q0 10 6.5 16.5t15.5 6.5t17 -5.5t8 -15.5q0 -24 -23 -24q-10 0 -17 6.5t-7 15.5zM430 434q9 -6 19 -6q19 0 22 14l8 -14q0 -7 -8 -12.5t-16 -5.5q-11 0 -15 4zM471 672q0 -109 25 -178q70 -4 184.5 -48.5t193.5 -44.5 q43 0 66.5 2t54.5 14.5t56 37.5q6 6 14 6t8 -10q0 -26 14.5 -55.5t14.5 -30.5q1 -7 -5.5 -14t-13.5 -7q-15 0 -27 12t-14 21q-2 6 4.5 10t10.5 0q3 -3 6 -10t6 -12t6 -5q2 0 4 1.5t2.5 5.5t-2.5 10q-6 13 -18 27t-21 14q-11 0 -28.5 -13t-14.5 -20q13 -35 48 -61.5t65 -26.5 q39 0 60.5 30.5t21.5 67.5q0 34 -26.5 97.5t-53.5 103.5q-10 15 -3.5 24t19.5 -10q34 -48 86 -189l3 -7q5 -11 16 -11q22 0 39.5 33.5t17.5 63.5q0 46 -20 84q-27 45 -51 93t-35.5 73.5t-12.5 31.5q-2 7 1.5 10.5t8.5 2.5t7 -7q32 -77 98 -188q27 -49 27 -104q35 0 52 40.5 t17 81.5q0 34 -22.5 71t-65.5 89t-63 82q-7 8 -8 18.5t6 12.5q3 1 5 0t4 -3.5t3 -5t3.5 -7t4.5 -7.5q10 -19 41.5 -34t77.5 -15q21 0 33 2q41 -16 94 -16q73 0 115 18q46 -22 129 -22q116 0 116 57q0 13 -6 16q0 -15 -14.5 -25.5t-36.5 -10.5q-67 0 -67 59q-432 84 -691 84 q-290 0 -534 -127q-35 -90 -35 -182zM1120 369q24 3 34 14t13 37l9 -27q-2 -18 -16 -30t-32 -11zM1221 469q25 -1 34 14t11 47l8 -26q2 -23 -11.5 -39t-33.5 -12zM1315 586q25 -1 34 14t11 47l8 -26q2 -23 -11.5 -39.5t-33.5 -12.5zM1749 895q0 -41 47 -41q39 0 39 25 q-39 5 -86 16z" />
<glyph unicode="B" horiz-adv-x="2048" d="M174 858q0 11 3 18t10.5 10.5t12 5.5t15 3.5t12.5 1.5q186 44 408.5 74t363.5 30q297 0 529 -116q5 15 8 16q23 11 53 14q9 27 101 27q15 0 54.5 -2t63.5 -2q64 -107 64 -291q0 -94 -17 -192.5t-47 -149.5q-6 0 -51 -2t-74 -2q-97 0 -110 16q-11 11 -8 31q-34 10 -43 31 q-5 10 -8 42t-1 46q-49 -7 -160 -48.5t-182 -41.5q-38 0 -96 8q-22 -50 -63.5 -79.5t-77.5 -29.5q-51 0 -75.5 37.5t-24.5 67.5q-6 -4 -19 -4q-29 0 -51.5 32.5t-26.5 61.5q-46 0 -70 46t-24 104q0 34 18 67t52 72t43 53q-21 -12 -74 -12q-23 0 -35 2q-49 -19 -96 -19 q-63 0 -113 19q-52 -23 -123 -23q-62 0 -101.5 19t-39.5 59zM190 858q0 -57 117 -57q83 0 129 22q42 -18 115 -18q53 0 94 16q12 -2 33 -2q46 0 77.5 15t41.5 34q2 3 4 7.5t3.5 7t3.5 5t4 3.5t5 0q7 -2 5.5 -12.5t-7.5 -18.5q-20 -30 -63 -82t-65.5 -89t-22.5 -71 q0 -41 17 -81.5t52 -40.5q0 55 27 104q66 111 98 188q2 6 6.5 7t8 -2.5t1.5 -10.5q-1 -6 -12.5 -31.5t-35 -73.5t-50.5 -93q-20 -38 -20 -84q0 -30 17.5 -63.5t39.5 -33.5q11 0 16 11l43 106q29 66 46 90q13 19 19.5 10t-3.5 -24q-27 -40 -53.5 -103.5t-26.5 -97.5 q0 -37 21.5 -67.5t60.5 -30.5q30 0 65 26.5t48 61.5q3 7 -14.5 20t-28.5 13q-9 0 -21 -14t-18 -27q-3 -6 -2.5 -10t2.5 -5.5t4 -1.5q3 0 6 5t6 12t6 10q4 4 10.5 0t4.5 -10q-2 -9 -14 -21t-27 -12q-7 0 -13.5 7t-5.5 14q0 1 14.5 30.5t14.5 55.5q0 10 8 10t14 -6 q25 -25 56 -37.5t54 -14.5t66 -2q79 0 194 44.5t185 48.5q25 69 25 178q0 92 -35 182q-244 127 -534 127q-259 0 -691 -84q0 -59 -67 -59q-22 0 -36.5 10.5t-14.5 25.5q-7 -4 -7 -16zM211 879q0 -25 39 -25q47 0 47 41q-47 -11 -86 -16zM678 621l8 26q2 -32 11 -47t34 -14 l-8 -17q-20 -4 -33.5 12.5t-11.5 39.5zM772 504l8 26q2 -32 11 -47t34 -14l-8 -16q-20 -4 -33.5 12t-11.5 39zM870 393l9 27q3 -26 13 -37t34 -14l-8 -17q-18 -1 -32 11t-16 30zM1544 389q11 -22 58 -22q24 24 39.5 117t15.5 178q0 170 -55 233q-32 0 -52 -8 q49 -111 49 -215q0 -60 -14.5 -144t-40.5 -139zM1567 428l8 14q3 -14 22 -14q10 0 19 6l-10 -20q-4 -4 -15 -4q-8 0 -16 5.5t-8 12.5zM1581 473q0 10 8 15.5t17 5.5t15.5 -6.5t6.5 -16.5q0 -9 -7 -15.5t-17 -6.5q-23 0 -23 24zM1595 508l4 18q6 6 17 6q9 0 16.5 -5.5 t7.5 -12.5l-4 -14q-11 14 -24 14q-11 0 -17 -6zM1624 909q18 -26 33 -69t18 -80q5 -54 19 -57t14 42q0 52 12 52q9 -1 17 -41q5 -22 12 -21q10 2 10 28v5q-3 41 3 41q6 1 15 -33l1 -2q5 -19 13 -10q6 8 5 29q-2 30 7 28q4 -1 9 -12q6 -17 13 -17q9 1 6 27q-2 18 -6 31.5 t-7 20t-11 20.5t-13 24q-14 0 -49 1.5t-53 1.5q-47 0 -68 -9z" />
<glyph unicode="C" horiz-adv-x="2048" d="M662 578q0 37 29 78t79 63q-8 58 -8 96q0 71 41.5 182t48.5 160q-15 -2 -46.5 0.5t-41.5 7.5q-21 9 -31 43q-19 -3 -31 9q-16 13 -16 110q0 29 2 74t2 51q51 30 149.5 47t192.5 17q184 0 291 -64q0 -24 2 -64t2 -55q0 -91 -27 -100q-3 -30 -14 -53q-1 -4 -16 -9 q116 -232 116 -528q0 -141 -30 -363.5t-74 -408.5q0 -2 -1.5 -12.5t-3.5 -15t-5.5 -12t-10.5 -10.5t-18 -3q-40 0 -59 39.5t-19 101.5q0 71 23 123q-19 50 -19 113q0 47 19 96q-2 12 -2 35q0 52 12 73q-13 -9 -52.5 -42.5t-72.5 -51.5t-67 -18q-58 0 -104 24t-46 70 q-29 4 -61.5 26.5t-32.5 51.5q0 12 4 18q-30 0 -67 25t-37 76zM682 580q0 -39 30.5 -60.5t67.5 -21.5q34 0 97.5 26.5t103.5 53.5q16 11 25 2q7 -7 -11 -19q-48 -34 -188 -85l-8 -3q-11 -5 -11 -16q0 -22 33.5 -40t63.5 -18q44 0 84 21q45 27 93 50.5t73.5 35t31.5 12.5 q7 2 11 -1.5t3 -8t-7 -6.5q-74 -31 -189 -99q-47 -26 -104 -26q0 -35 41 -52.5t82 -17.5q34 0 71 22.5t88.5 66t81.5 63.5q8 7 18.5 8t12.5 -6q1 -3 0 -5t-3.5 -4.5t-4.5 -3.5l-7 -3.5t-8 -4.5q-20 -10 -34.5 -41t-14.5 -77q0 -21 2 -33q-16 -41 -16 -94q0 -73 18 -115 q-22 -46 -22 -129q0 -117 57 -117q14 0 17 6q-15 0 -26 14.5t-11 36.5q0 68 59 68q84 432 84 690q0 291 -127 535q-90 35 -182 35q-109 0 -178 -25q-4 -70 -48.5 -185t-44.5 -194q0 -43 2 -66t14.5 -54t37.5 -56q6 -6 6 -14q0 -9 -10 -9q-26 0 -55.5 -14t-30.5 -14 q-7 -1 -14 5.5t-7 12.5q0 15 12 27t21 14q6 2 10 -4t0 -10q-3 -3 -7.5 -5.5t-9 -4t-7.5 -4t-3 -5.5q0 -12 17 -4q13 6 27 18t14 21q0 11 -13 28.5t-20 14.5q-35 -13 -61.5 -47.5t-26.5 -64.5zM737 561l17 8q3 -24 14 -34t37 -13l-27 -8q-18 2 -30 15.5t-11 31.5zM752 1245 q0 -46 22 -57q55 26 139 40.5t144 14.5q104 0 215 -49q8 20 8 51q-63 55 -233 55q-85 0 -178 -15.5t-117 -39.5zM795 1235q0 10 4 14l20 11q-6 -9 -6 -19q0 -19 14 -22l-14 -9q-7 0 -12.5 8.5t-5.5 16.5zM834 1247q0 10 6.5 17.5t15.5 7.5q10 0 16.5 -7t6.5 -16t-5.5 -16.5 t-15.5 -7.5q-24 0 -24 22zM838 461l16 8q-1 -25 14 -34t47 -11l-26 -8q-23 -2 -39 11.5t-12 33.5zM885 1280l14 4q7 0 13 -7.5t6 -16.5q0 -10 -7 -17l-18 -4q6 6 6 16q0 15 -14 25zM954 367l17 8q-1 -25 14 -34t47 -11l-26 -8q-23 -2 -39.5 11.5t-12.5 33.5zM1088 1340 q-1 -14 49 -20q4 -1 8 -1q37 -3 80 -18t69 -33q9 21 9 67q0 18 -1.5 53.5t-1.5 49.5q-10 5 -24 13t-20.5 11t-20 7t-31.5 6q-28 4 -27 -6q2 -7 17 -13q21 -8 9 -14q-7 -3 -25 -2q-27 2 -31 -9q-2 -6 10 -9l2 -1q38 -10 35.5 -15.5t-41.5 -2.5q-25 2 -32 -8q-5 -8 13 -13 q3 -1 7 -2q41 -8 41 -17q-3 -11 -52 -11q-41 0 -42 -12zM1239 -106q0 -39 25 -39q5 39 16 86q-41 0 -41 -47z" />
<glyph unicode="D" horiz-adv-x="2048" d="M662 643q0 296 116 528q-15 5 -16 9q-11 23 -14 53q-27 9 -27 100q0 15 2 55t2 64q107 64 291 64q94 0 192.5 -17t149.5 -47q0 -6 2 -51t2 -74q0 -97 -16 -110q-12 -12 -31 -9q-10 -34 -31 -43q-10 -5 -41.5 -7.5t-46.5 -0.5q7 -49 48.5 -160t41.5 -182q0 -38 -8 -96 q50 -22 79 -63t29 -78q0 -51 -37 -76t-67 -25q4 -6 4 -18q0 -29 -32.5 -51.5t-61.5 -26.5q0 -46 -46 -70t-104 -24q-34 0 -67 18t-72.5 51.5t-52.5 42.5q12 -21 12 -73q0 -23 -2 -35q19 -49 19 -96q0 -63 -19 -113q23 -52 23 -123q0 -62 -19 -101.5t-59 -39.5q-11 0 -18 3 t-10.5 10.5t-5.5 12t-3.5 15t-1.5 12.5q-44 186 -74 408.5t-30 363.5zM682 649q0 -258 84 -690q59 0 59 -68q0 -22 -11 -36.5t-26 -14.5q3 -6 17 -6q57 0 57 117q0 83 -22 129q18 42 18 115q0 53 -16 94q2 12 2 33q0 46 -14.5 77t-34.5 41q-3 2 -8 4.5l-7 3.5t-4.5 3.5 t-3.5 4.5t0 5q2 7 12.5 6t18.5 -8q30 -20 81.5 -63.5t88.5 -66t71 -22.5q41 0 82 17.5t41 52.5q-57 0 -104 26q-115 68 -189 99q-6 2 -7 6.5t3 8t11 1.5q6 -1 31.5 -12.5t73.5 -35t93 -50.5q40 -21 84 -21q30 0 63.5 18t33.5 40q0 11 -11 16l-104 41q-67 30 -92 47 q-20 14 -9 20q10 6 23 -3q40 -27 103.5 -53.5t97.5 -26.5q37 0 67.5 21.5t30.5 60.5q0 30 -26.5 64.5t-61.5 47.5q-7 3 -20 -14.5t-13 -28.5q0 -9 14 -21t27 -18q17 -8 17 4q0 3 -5 6t-12 6.5t-10 6.5q-4 4 0 10t10 4q9 -2 21 -14t12 -27q0 -6 -7 -12.5t-14 -5.5 q-1 0 -30.5 14t-55.5 14q-10 0 -10 9q0 8 6 14q25 25 37.5 56t14.5 54t2 66q0 79 -44.5 194t-48.5 185q-69 25 -178 25q-92 0 -182 -35q-127 -244 -127 -535zM745 1335q0 -46 9 -67q26 18 69 33t80 18q54 5 57 19t-42 14q-55 0 -51 12q2 9 40 16q21 4 21 12q0 10 -25 11h-8 q-44 -3 -41 3q2 6 35 15q19 5 10 13q-8 7 -29 6q-30 -2 -28 7q1 4 12 9q17 6 17 13q-1 9 -27 6q-18 -2 -31.5 -6t-20 -7t-20.5 -11t-24 -13q0 -14 -1.5 -49.5t-1.5 -53.5zM768 -59q11 -47 16 -86q25 0 25 39q0 47 -41 47zM768 1245q0 -31 8 -51q111 49 215 49 q60 0 144 -14.5t139 -40.5q22 11 22 57q-24 24 -117 39.5t-178 15.5q-170 0 -233 -55zM1016 330q32 2 47 11t14 34l17 -8q4 -20 -12.5 -33.5t-39.5 -11.5zM1130 1260q0 9 6 16.5t13 7.5l14 -4q-14 -10 -14 -25q0 -10 6 -16l-18 4q-7 7 -7 17zM1133 424q32 2 47 11t14 34 l16 -8q4 -20 -12 -33.5t-39 -11.5zM1169 1249q0 9 6.5 16t16.5 7q9 0 15.5 -7.5t6.5 -17.5q0 -22 -24 -22q-10 0 -15.5 7.5t-5.5 16.5zM1221 1219q14 3 14 22q0 10 -6 19l20 -11q4 -4 4 -14q0 -8 -5.5 -16.5t-12.5 -8.5zM1243 522q26 3 37 13t14 34l17 -8q1 -18 -11 -31.5 t-30 -15.5z" />
<glyph unicode="E" horiz-adv-x="2048" d="M662 793q0 141 30 363.5t74 408.5q0 2 1.5 12.5t3.5 15t5.5 12t10.5 10.5t18 3q40 0 59 -39.5t19 -101.5q0 -71 -23 -123q19 -50 19 -113q0 -47 -19 -96q2 -12 2 -35q0 -53 -12 -74q14 9 53 43t72 52t67 18q58 0 104 -24t46 -70q29 -4 61.5 -26.5t32.5 -51.5 q0 -13 -4 -19q30 0 67 -24.5t37 -75.5q0 -37 -29 -78t-79 -63q8 -58 8 -96q0 -71 -41.5 -182t-48.5 -160q14 2 46 -1t42 -8q21 -9 31 -43q20 3 31 -8q16 -13 16 -110q0 -29 -2 -74t-2 -51q-51 -30 -149.5 -47t-192.5 -17q-184 0 -291 64q0 24 -2 63.5t-2 54.5q0 92 27 101 q3 30 14 53q1 3 16 8q-116 232 -116 529zM682 786q0 -290 127 -534q90 -35 182 -35q109 0 178 25q4 70 48.5 185t44.5 194q0 43 -2 66t-14.5 54t-37.5 56q-6 6 -6 14t10 8q26 0 55.5 14.5t30.5 14.5q7 1 14 -5.5t7 -13.5q0 -15 -12 -27t-21 -14q-6 -2 -10 4.5t0 10.5 q3 3 10 6t12 6t5 6q0 2 -1.5 4t-5.5 2.5t-10 -2.5q-13 -6 -27 -18t-14 -21q0 -11 13 -28.5t20 -14.5q35 13 61.5 48t26.5 65q0 39 -30.5 60.5t-67.5 21.5q-34 0 -97.5 -26.5t-103.5 -53.5q-15 -10 -24 -3.5t10 19.5q48 34 189 86l7 3q11 5 11 16q0 22 -33.5 39.5t-63.5 17.5 q-46 0 -84 -20q-45 -27 -93 -50.5t-73.5 -35t-31.5 -12.5q-7 -2 -11 1.5t-3 8t7 6.5q80 33 189 98q49 27 104 27q0 35 -40.5 52t-82.5 17q-34 0 -71 -22.5t-88.5 -65.5t-81.5 -63q-8 -7 -18.5 -8t-12.5 6q-1 3 0 5t3.5 4t5 3t7 3.5t7.5 4.5q19 10 34 41.5t15 77.5 q0 21 -2 33q16 41 16 94q0 73 -18 115q22 46 22 129q0 117 -57 117q-13 0 -17 -7q15 0 26 -14.5t11 -36.5q0 -67 -59 -67q-84 -432 -84 -691zM745 100q0 -18 1.5 -53t1.5 -49q10 -5 24 -13t20.5 -11t20 -7t31.5 -6q28 -4 27 6q0 7 -17 13q-21 8 -9 14q7 3 25 2q27 -2 31 8 q2 5 -8 9q-2 0 -4 1q-36 10 -35 16q0 6 41 3q27 -2 32 9q4 5 -9 10q-5 2 -11 3q-43 9 -40 18q4 11 51 11q41 0 42 12q1 14 -49 20l-8 1q-37 3 -80 18t-69 33q-9 -21 -9 -68zM768 190q63 -55 233 -55q85 0 178 15.5t117 39.5q0 47 -22 58q-55 -26 -139 -40.5t-144 -14.5 q-104 0 -215 49q-8 -20 -8 -52zM768 1495q41 0 41 47q0 39 -25 39q-5 -39 -16 -86zM1016 1106l26 8q23 2 39.5 -11.5t12.5 -33.5l-17 -8q1 25 -14 34t-47 11zM1130 176q0 10 7 17l18 4q-6 -6 -6 -17q0 -14 14 -24l-14 -4q-7 0 -13 7.5t-6 16.5zM1133 1012l26 8 q23 2 39 -11.5t12 -33.5l-16 -8q1 25 -14 34t-47 11zM1169 186q0 9 5.5 17t15.5 8q24 0 24 -23q0 -10 -6.5 -17t-15.5 -7q-10 0 -16.5 6.5t-6.5 15.5zM1221 217l14 8q7 0 12.5 -8t5.5 -16q0 -11 -4 -15l-20 -10q6 9 6 19q0 19 -14 22zM1243 913l27 9q18 -2 30 -16t11 -32 l-17 -8q-3 24 -14 34t-37 13z" />
<glyph unicode="F" horiz-adv-x="2048" d="M662 858q0 51 37 75.5t67 24.5q-4 6 -4 19q0 29 32.5 51.5t61.5 26.5q0 46 46 70t104 24q34 0 67 -18t72 -52t53 -43q-12 21 -12 74q0 23 2 35q-19 49 -19 96q0 63 19 113q-23 52 -23 123q0 62 19 101.5t59 39.5q11 0 18 -3t10.5 -10.5t5.5 -12t3.5 -15t1.5 -12.5 q44 -186 74 -408.5t30 -363.5q0 -297 -116 -529q15 -5 16 -8q11 -23 14 -53q27 -9 27 -101q0 -15 -2 -54.5t-2 -63.5q-107 -64 -291 -64q-94 0 -192.5 17t-149.5 47q0 6 -2 51t-2 74q0 97 16 110q11 11 31 8q10 34 31 43q10 5 42 8t46 1q-7 49 -48.5 160t-41.5 182 q0 38 8 96q-50 22 -79 63t-29 78zM682 856q0 -30 26.5 -65t61.5 -48q7 -3 20 14.5t13 28.5q0 9 -14 21t-27 18q-6 3 -10 2.5t-5.5 -2.5t-1.5 -4q0 -3 5 -6t12 -6t10 -6q4 -4 0 -10.5t-10 -4.5q-9 2 -21 14t-12 27q0 7 7 13.5t14 5.5q1 0 30.5 -14.5t55.5 -14.5q10 0 10 -8 t-6 -14q-25 -25 -37.5 -56t-14.5 -54t-2 -66q0 -79 44.5 -194t48.5 -185q69 -25 178 -25q92 0 182 35q127 244 127 534q0 259 -84 691q-59 0 -59 67q0 22 11 36.5t26 14.5q-4 7 -17 7q-57 0 -57 -117q0 -83 22 -129q-18 -42 -18 -115q0 -53 16 -94q-2 -12 -2 -33 q0 -46 15 -77.5t34 -41.5q3 -2 7.5 -4t7 -3.5t5 -3.5t3.5 -4t0 -5q-2 -7 -12.5 -6t-18.5 8q-30 20 -81.5 63t-88.5 65.5t-71 22.5q-42 0 -82.5 -17t-40.5 -52q55 0 104 -27q109 -65 189 -98q6 -2 7 -6.5t-3 -8t-11 -1.5q-6 1 -31.5 12.5t-73.5 35t-93 50.5q-38 20 -84 20 q-30 0 -63.5 -17.5t-33.5 -39.5q0 -11 11 -16l106 -43q66 -29 90 -46q19 -13 10 -19.5t-24 3.5q-40 27 -103.5 53.5t-97.5 26.5q-37 0 -67.5 -21.5t-30.5 -60.5zM737 874q-1 18 11 32t30 16l27 -9q-26 -3 -37 -13t-14 -34zM752 190q24 -24 117 -39.5t178 -15.5q170 0 233 55 q0 32 -8 52q-111 -49 -215 -49q-60 0 -144 14.5t-139 40.5q-22 -11 -22 -58zM795 201q0 8 5.5 16t12.5 8l14 -8q-14 -3 -14 -22q0 -10 6 -19l-20 10q-4 4 -4 15zM834 188q0 23 24 23q10 0 15.5 -8t5.5 -17t-6.5 -15.5t-16.5 -6.5q-9 0 -15.5 7t-6.5 17zM838 975 q-4 20 12 33.5t39 11.5l26 -8q-32 -2 -47 -11t-14 -34zM885 156q14 10 14 24q0 11 -6 17l18 -4q7 -7 7 -17q0 -9 -6 -16.5t-13 -7.5zM954 1069q-4 20 12.5 33.5t39.5 11.5l26 -8q-32 -2 -47 -11t-14 -34zM1088 98q-3 -14 42 -14q52 0 52 -12q-1 -9 -41 -17q-22 -5 -21 -12 q2 -10 28 -10h5q41 3 41 -3q1 -6 -35 -16q-19 -5 -10 -13q8 -6 29 -5q30 2 28 -7q-1 -4 -12 -9q-17 -6 -17 -13q-1 -10 27 -6q18 2 31.5 6t20 7t20.5 11t24 13q0 14 1.5 49t1.5 53q0 47 -9 68q-26 -18 -69 -33t-80 -18q-54 -5 -57 -19zM1239 1542q0 -47 41 -47 q-11 47 -16 86q-25 0 -25 -39z" />
<glyph unicode="G" d="M102 506l293 211l-293 211h377l-119 368l306 -221l112 344l113 -344l305 221l-119 -368h377l-293 -211l293 -211h-377l119 -369l-305 221l-113 -344l-112 344l-306 -221l119 369h-377zM537 647h139l-47 -141l106 82l43 -129l43 129l107 -82l-47 141h139l-102 70l102 69 h-139l47 142l-107 -82l-43 129l-43 -129l-106 82l47 -142h-139l102 -69z" />
<glyph unicode="H" d="M102 506l293 211l-293 211h377l-119 368l306 -221l112 344l113 -344l305 221l-119 -368h377l-293 -211l293 -211h-377l119 -369l-305 221l-113 -344l-112 344l-306 -221l119 369h-377zM246 547l262 86l-70 49zM256 879l502 -162l-92 162h-410zM446 1176l177 -240l28 88z M459 260l309 428l-182 -39zM709 385l69 -225v276zM778 504l332 -240l-313 426zM778 1260l2 -529l125 139zM803 717l172 -76l330 242zM932 928h92l84 248zM1034 631l27 -82h254z" />
<glyph unicode="I" d="M102 506l293 211l-293 211h377l-119 368l306 -221l112 344l113 -344l305 221l-119 -368h377l-293 -211l293 -211h-377l119 -369l-305 221l-113 -344l-112 344l-306 -221l119 369h-377zM242 551h299l-95 -293l242 174l90 -270l90 270l242 -174l-94 293h299l-232 166 l232 166h-299l94 295l-244 -177l-88 269l-88 -269l-244 177l95 -295h-299l231 -166zM350 586l182 131l-182 131h238l-78 242l199 -144l69 213l70 -213l199 144l-78 -242h237l-182 -131l182 -131h-237l78 -238l-197 141l-72 -215l-71 215l-197 -141l78 238h-238z" />
<glyph unicode="J" d="M102 506l289 211l-289 211h377l-117 370l304 -221l112 342l113 -342l303 221l-117 -370h377l-289 -211l289 -211h-377l117 -371l-303 221l-113 -342l-112 342l-304 -221l117 371h-377zM242 551h252l24 74l-88 63zM242 883l188 -138l88 64l-24 74h-252zM449 254l202 147 l-33 105h-90zM449 1180l79 -252h90l33 104zM469 717l102 -74l-28 -92h108l39 -121l88 62l88 -62l39 121h109l-29 92l102 74l-102 74l29 92h-109l-39 121l-88 -62l-88 62l-39 -121h-108l28 -92zM610 717q0 69 49.5 118.5t118.5 49.5t118.5 -49.5t49.5 -118.5t-49.5 -118.5 t-118.5 -49.5t-118.5 49.5t-49.5 118.5zM655 717q0 -51 36 -87t87 -36t87 36t36 87t-36 87t-87 36t-87 -36t-36 -87zM705 385l73 -221l74 221l-74 51zM705 1049l73 -52l74 52l-74 221zM905 401l203 -147l-80 252h-90zM905 1032l33 -104h90l80 252zM1038 625l25 -74h252 l-189 137zM1038 809l88 -64l189 138h-252z" />
<glyph unicode="K" d="M102 506l289 211l-289 211h377l-117 370l304 -221l112 342l113 -342l303 221l-117 -370h377l-289 -211l289 -211h-377l117 -371l-303 221l-113 -342l-112 342l-304 -221l117 371h-377zM242 883l329 -240l-125 -389l332 238l332 -238l-125 389l330 240h-410l-127 387 l-127 -387h-409zM578 778h153l47 146l47 -146h154l-123 -90l47 -147l-125 90l-125 -90l47 147z" />
<glyph unicode="L" d="M102 506l293 211l-293 211h377l-119 368l306 -221l112 344l113 -344l305 221l-119 -368h377l-293 -211l293 -211h-377l119 -369l-305 221l-113 -344l-112 344l-306 -221l119 369h-377zM242 551h299l-95 -293l242 174l90 -270l90 270l242 -174l-94 293h299l-232 166 l232 166h-299l94 295l-244 -177l-88 269l-88 -269l-244 177l95 -295h-299l231 -166zM336 852h338l104 317l105 -317h338l-273 -195l107 -321l-277 199l-276 -199l106 321z" />
<glyph unicode="M" d="M70 717l231 76l-199 143h252l-151 211l231 -76l-74 234l201 -146v234l141 -195l76 229l76 -229l141 195v-234l201 146l-74 -234l232 76l-152 -211h252l-199 -143l232 -76l-232 -76l199 -143h-252l152 -211l-232 75l74 -233l-201 145v-233l-141 195l-76 -230l-76 230 l-141 -195v233l-201 -145l74 233l-231 -75l151 211h-252l199 143zM526 717l84 -27l-73 -51h96l-62 -84l86 31l-28 -88l69 53v-88l52 72l28 -84l29 84l51 -72v88l70 -53l-29 88l86 -31l-61 84h96l-74 51l84 27l-84 26l74 52h-96l61 84l-86 -31l29 88l-70 -53v88l-51 -72 l-29 84l-28 -84l-52 72v-88l-69 53l28 -88l-86 31l62 -84h-96l73 -52z" />
<glyph unicode="N" d="M70 717l231 76l-199 143h252l-151 211l231 -76l-74 234l201 -146v234l141 -195l76 229l76 -229l141 195v-234l201 146l-74 -234l232 76l-152 -211h252l-199 -143l232 -76l-232 -76l199 -143h-252l152 -211l-232 75l74 -233l-201 145v-233l-141 195l-76 -230l-76 230 l-141 -195v233l-201 -145l74 233l-231 -75l151 211h-252l199 143zM217 717h191l-62 41zM242 895l512 -166l-95 158zM248 553l262 86l-70 49zM332 399l155 115h-69zM332 1047l157 -115l-20 65zM449 266l315 434l-182 -38zM451 1171l165 -219l25 80zM600 1251l57 -180l21 72z M606 186l60 181l-58 -45zM702 389l70 -225l-2 276zM772 516l334 -250l-315 434zM778 745l121 138l-121 399v-537zM801 727l168 -74l342 240zM862 315l82 -118l-61 184zM891 1059l55 39l4 145zM948 944l84 2l74 223zM1040 627l29 -80l236 -2zM1075 942l74 2l80 109zM1079 506 l25 -70l127 -43zM1133 717l55 -41l139 41h-194z" />
<glyph unicode="O" d="M70 717l231 76l-199 143h252l-151 211l231 -76l-74 234l201 -146v234l141 -195l76 229l76 -229l141 195v-234l201 146l-74 -234l232 76l-152 -211h252l-199 -143l232 -76l-232 -76l199 -143h-252l152 -211l-232 75l74 -233l-201 145v-233l-141 195l-76 -230l-76 230 l-141 -195v233l-201 -145l74 233l-231 -75l151 211h-252l199 143zM215 717l186 -62l-161 -112h204l-122 -170l180 59l-58 -186l162 116v-184l111 154l61 -180l62 184l110 -154v180l162 -114l-59 182l182 -55l-121 168h199l-156 112l184 62l-186 61l162 113h-205l123 170 l-180 -60l57 187l-162 -117v184l-112 -155l-60 182l-61 -184l-111 153v-180l-160 115l58 -187l-185 62l123 -170h-198l155 -113zM322 717l151 51l-123 88h162l-100 139l145 -51l-47 152l131 -90v137l86 -121l51 149l47 -149l90 125v-146l134 97l-45 -148l141 45l-105 -139 h166l-129 -88l158 -51l-154 -51l123 -88h-157l100 -142l-148 47l48 -145l-132 92v-139l-86 121l-51 -152l-49 148l-88 -123v147l-133 -96l45 147l-141 -45l100 140h-162l129 88z" />
<glyph unicode="P" d="M70 717l231 76l-199 143h252l-151 211l231 -76l-74 234l201 -146v234l141 -195l76 229l76 -229l141 195v-234l201 146l-74 -234l232 76l-152 -211h252l-199 -143l232 -76l-232 -76l199 -143h-252l152 -211l-232 75l74 -233l-201 145v-233l-141 195l-76 -230l-76 230 l-141 -195v233l-201 -145l74 233l-231 -75l151 211h-252l199 143zM244 543h243l29 88l-76 55zM244 891l196 -143l76 55l-29 88h-243zM449 262l196 144l-29 88h-94zM449 1171l73 -231h94l29 88zM561 655h125l-43 -133l102 74l33 -98l31 98l102 -74l-45 133h129l-84 60l84 61 h-129l45 133l-102 -73l-31 98l-33 -98l-102 73l43 -133h-125l82 -61zM702 387l76 -231l76 231l-76 53zM702 1047l76 -54l76 54l-76 231zM911 406l197 -144l-74 232h-94zM911 1028l29 -88h94l74 231zM1040 631l29 -88h244l-197 143zM1040 803l76 -55l197 143h-244z" />
<glyph unicode="Q" d="M70 717l231 76l-199 143h252l-151 211l231 -76l-74 234l201 -146v234l141 -195l76 229l76 -229l141 195v-234l201 146l-74 -234l232 76l-152 -211h252l-199 -143l232 -76l-232 -76l199 -143h-252l152 -211l-232 75l74 -233l-201 145v-233l-141 195l-76 -230l-76 230 l-141 -195v233l-201 -145l74 233l-231 -75l151 211h-252l199 143zM242 883l329 -240l-125 -389l332 238l332 -238l-125 389l330 240h-410l-127 387l-127 -387h-409zM578 778h153l47 146l47 -146h154l-123 -90l47 -147l-125 90l-125 -90l47 147z" />
<glyph unicode="R" d="M70 717l231 76l-199 143h252l-151 211l231 -76l-74 234l201 -146v234l141 -195l76 229l76 -229l141 195v-234l201 146l-74 -234l232 76l-152 -211h252l-199 -143l232 -76l-232 -76l199 -143h-252l152 -211l-232 75l74 -233l-201 145v-233l-141 195l-76 -230l-76 230 l-141 -195v233l-201 -145l74 233l-231 -75l151 211h-252l199 143zM242 553h299l-95 -293l242 174l90 -270l90 270l242 -174l-94 293h299l-232 166l232 166h-299l94 295l-244 -176l-88 268l-88 -268l-244 176l95 -295h-299l231 -166zM336 854h338l104 317l105 -317h338 l-273 -195l107 -321l-277 199l-276 -199l106 321z" />
<glyph unicode="S" horiz-adv-x="819" d="M-20 1188v29h860v-29h-860zM-20 1266v168h860v-168h-860z" />
<glyph unicode="T" horiz-adv-x="819" d="M0 614v820h819v-168h-651v-652h-168zM217 616v252h191v129h-191v220h219v-191h129v191h254v-29h-225v-191h-158v-157h-190v-224h-29zM246 1026h162v162h-162v-162z" />
<glyph unicode="U" horiz-adv-x="819" d="M0 614v488h133q89 0 144 54.5t55 143.5v134h487v-168h-319q0 -138 -97 -235t-235 -97v-320h-168zM0 1300q0 56 39 95t94 39q56 0 95.5 -39.5t39.5 -94.5q0 -56 -40 -95.5t-95 -39.5t-94 39.5t-39 95.5zM217 614v281q130 15 218.5 103t103.5 219h280v-29h-260 q-23 -129 -103.5 -210t-209.5 -104v-260h-29z" />
<glyph unicode="V" horiz-adv-x="839" d="M-426 1350q14 37 64.5 60.5t93.5 23.5q-35 30 -35 88q0 34 16 61t47 39v-12q0 -84 58 -130t145 -46h37v36q0 87 -46.5 145t-131.5 58h-10q23 62 100 62q59 0 88 -33q0 43 23.5 93.5t60.5 64.5q37 -14 60.5 -64.5t23.5 -93.5q29 33 88 33q77 0 100 -62q-32 -20 -53.5 -41 t-32.5 -38t-16.5 -41.5t-6.5 -39.5t-1 -43v-36h594v-168h-594v-49h594v-29h-594v-574h-29v574h-49v-574h-168v574h-37q-34 0 -54 -2.5t-48 -12t-52.5 -33.5t-48.5 -63q-31 11 -47 39t-16 62q0 58 35 88q-43 0 -93.5 23.5t-64.5 60.5zM-238 1116q56 101 201 101h37v49h-37 q-79 0 -135.5 -39.5t-65.5 -110.5zM168 1217h49v49h-49v-49zM168 1434h49v36q0 146 100 201q-72 -9 -110.5 -65.5t-38.5 -135.5v-36z" />
<glyph unicode="W" horiz-adv-x="1050" d="M0 410v188q0 245 125 440q26 42 26 80q1 8 -1 16q-6 44 -39 44q3 -20 -12.5 -39t-41.5 -19q-24 0 -40.5 16t-16.5 42q0 48 39 66q26 12 53 12q14 0 29 -3q-121 55 -121 181q125 0 180 -121q-3 14 -3 28q0 28 12 54q18 39 67 39q25 0 41 -17t16 -41q0 -26 -18.5 -41 t-38.5 -12q0 -33 44 -39q8 -1 15 0q37 0 80 25q195 125 441 125h215v-168h-215q-200 0 -353 -101q-51 -33 -117 -33q-35 0 -73 9q9 -38 10 -73q0 -66 -35 -118q-100 -152 -100 -352v-188h-168zM217 410v188q0 168 83 310.5t225.5 225.5t310.5 83h215v-29h-215 q-160 0 -296 -79t-215 -215t-79 -296v-188h-29z" />
<glyph unicode="X" horiz-adv-x="1228" d="M-225 567l225 226v395h-205v29h205v49h-205v168h205v204h168v-677l49 49v628h29v-204h395l225 225l119 -119l-106 -106h69l72 71l20 -20l-51 -51h240v-168h-983v-49h983v-29h-486l-497 -498v-485h-29v457l-49 -50v-407h-168v239l-51 -51l-21 21l774 774h-69l-739 -739z M246 1038l149 150h-149v-150z" />
<glyph unicode="Y" horiz-adv-x="1228" d="M0 205v727l113 112h276v277l113 113h727v-168h-672v-758h369v369h-291v-50h242v-270h-271v660h623v-29h-594v-144h459v-591l-113 -113h-592v459h-143v-594h-29v622h172v50h-221v-672h-168zM635 586h213v213h-213v-213z" />
<glyph unicode="Z" horiz-adv-x="1435" d="M0 0v649h393v148h-393v637h637v-394h147v394h652v-168h-484v-226h47v177h437v-29h-408v-148h393v-634h-393v-394h-635v394h-147v-406h-29v434h567v47h-616v-481h-168zM168 965h225v47h-176v205h205v-568h47v617h-301v-301zM246 1040h147v148h-147v-148zM422 41h577v756 h-47v-707h-483v316h-47v-365zM637 256h147v150h-147v-150zM637 649h147v148h-147v-148zM637 965h706v-484h-315v-47h365v578h-756v-47zM1028 649h150v148h-150v-148z" />
<glyph unicode="a" horiz-adv-x="2048" d="M180 647q0 184 64 291q24 0 63.5 2t54.5 2q92 0 101 -27q34 -4 49 -14q6 -4 10 -24q31 0 119.5 26t201.5 52t204 26q254 0 686 -84q0 -61 71 -61q22 0 39 11.5t17 26.5q6 -3 6 -16q0 -32 -28 -50q-29 -18 -69 -20q-13 -1 -27 0l-53 3q-40 5 -67 16q-42 -15 -98 -15h-4 q-59 0 -107 19q-38 -19 -67.5 -19t-49.5 13.5t-41 42.5q-3 4 -6 9.5t-4 8t-3.5 4t-6.5 0.5q-7 -2 -6 -12t8 -18q20 -30 63.5 -82t66 -89t22.5 -71q0 -41 -17.5 -82t-52.5 -41q0 56 -27 105q-66 111 -98 188q-2 6 -6.5 7t-8 -2.5t-1.5 -10.5q1 -6 12.5 -32t35 -74t50.5 -93 q20 -38 20 -84q0 -30 -17.5 -63t-39.5 -33q-11 0 -16 10l-41 103q-30 69 -47 94q-14 20 -20 8q-6 -10 3 -23q27 -40 53.5 -103t26.5 -97q0 -37 -21.5 -68t-60.5 -31q-30 0 -68 30t-51 65q-3 7 14.5 19.5t28.5 12.5q10 0 25 -17t20 -30q8 -16 -4 -16q-3 0 -7.5 6.5t-9 15 t-7.5 11.5q-4 4 -10.5 -0.5t-4.5 -10.5q2 -9 17.5 -23.5t30.5 -14.5q6 0 12.5 6.5t5.5 13.5q0 2 -17.5 34t-17.5 58q0 10 -8 10t-12 -4q-70 -61 -172 -61q-51 0 -102 16t-87 35t-86.5 36.5t-99.5 20.5q-4 0 -5 -6t1.5 -12t7.5 -6q19 0 31 -6q7 -6 1 -38t-12 -42 q-9 -21 -43 -31q3 -20 -8 -31q-6 -7 -27.5 -11t-52.5 -4.5t-59.5 0.5t-58 2t-37.5 1q-30 51 -47 149.5t-17 192.5zM223 428q2 -18 6 -31.5t7 -20t11 -20.5t13 -24q11 0 55 -2q25 -1 45 -1q15 1 27 1q28 2 43 8q-18 26 -33 69t-18 80q-5 54 -19 57q-13 -2 -14 -42 q0 -52 -12 -51q-9 1 -17 41q-5 22 -12 21q-10 -3 -10 -29v-5q3 -41 -3 -41q-6 -1 -15 33q-1 1 -1 2q-5 18 -12 11.5t-6 -29.5q2 -28 -6 -29q-5 -1 -10 12q-6 17 -13 17q-10 1 -6 -27zM395 662q0 -84 16 -177.5t40 -117.5q46 0 57 22q-26 55 -40.5 139t-14.5 144 q0 107 47 213q-13 10 -49 10q-56 -65 -56 -233zM412 514q0 7 7.5 12.5t16.5 5.5q11 0 17 -6l4 -18q-6 6 -17 6q-14 0 -24 -14zM424 471q0 10 6.5 16.5t15.5 6.5t17 -5.5t8 -15.5q0 -24 -22 -24q-10 0 -17.5 6.5t-7.5 15.5zM436 434q9 -6 19 -6q19 0 22 14l8 -14 q0 -7 -8 -12.5t-16 -5.5q-11 0 -15 4zM1126 348l9 -16q18 -1 31.5 11t15.5 30l-8 26q-3 -25 -13.5 -36.5t-34.5 -14.5zM1227 449l8 -17q20 -4 33.5 12t11.5 39l-8 27q-2 -32 -11 -47t-34 -14zM1321 565l8 -16q20 -4 33.5 12t11.5 39l-8 27q-2 -32 -11 -47.5t-34 -14.5z M1755 895q47 -11 86 -16q0 -25 -39 -25q-47 0 -47 41z" />
<glyph unicode="b" horiz-adv-x="2048" d="M180 858q0 13 6 16q0 -15 17 -26.5t39 -11.5q71 0 71 61q432 84 686 84q91 0 204 -26t201.5 -52t119.5 -26q4 20 10 24q15 10 49 14q9 27 100 27q15 0 55 -2t64 -2q64 -107 64 -291q0 -94 -17 -192.5t-47 -149.5q-8 0 -37.5 -1t-58 -2t-59.5 -0.5t-52.5 4.5t-27.5 11 q-11 11 -8 31q-34 10 -43 31q-6 10 -12 42t1 38q12 6 31 6q5 0 7.5 6t1.5 12t-5 6q-49 -3 -99.5 -20.5t-86.5 -36.5t-87 -35t-102 -16q-102 0 -172 61q-4 4 -12 4t-8 -10q0 -26 -17.5 -58t-17.5 -34q-1 -7 5.5 -13.5t12.5 -6.5q15 0 30.5 14.5t17.5 23.5q2 6 -4.5 10.5 t-10.5 0.5q-3 -3 -7.5 -11.5t-9 -15t-7.5 -6.5q-12 0 -4 16q5 13 20 30t25 17q11 0 28.5 -12.5t14.5 -19.5q-13 -35 -51 -65t-68 -30q-39 0 -60.5 31t-21.5 68q0 34 26.5 97t53.5 103q11 16 2 25q-7 8 -19 -10q-34 -48 -85 -189l-3 -8q-5 -10 -16 -10q-22 0 -39.5 33 t-17.5 63q0 46 20 84q27 45 50.5 93t35 74t12.5 32q2 7 -1.5 10.5t-8 2.5t-6.5 -7q-32 -77 -98 -188q-27 -49 -27 -105q-35 0 -52.5 41t-17.5 82q0 34 22.5 71t66 89t63.5 82q7 8 8 18t-6 12q-5 1 -7 -1t-6 -9t-7 -12q-21 -29 -41 -42.5t-49.5 -13.5t-67.5 19 q-48 -19 -107 -19h-4q-57 0 -98 15q-27 -11 -67 -16q-27 -3 -53 -3h-27q-40 2 -68.5 20t-28.5 50zM205 879q39 5 86 16q0 -41 -47 -41q-39 0 -39 25zM672 600q-2 -23 11.5 -39t33.5 -12l8 16q-25 -1 -34 14.5t-11 47.5zM766 483q-2 -23 11.5 -39t33.5 -12l8 17 q-25 -1 -34 14t-11 47zM864 373q2 -18 15.5 -30t31.5 -11l9 16q-24 3 -34.5 14.5t-13.5 36.5zM1538 389q11 -22 57 -21q24 24 40 117t16 177q0 168 -56 233q-36 0 -49 -10q47 -106 47 -213q0 -60 -14.5 -144t-40.5 -139zM1561 428l8 14q3 -14 22 -14q10 0 19 6l-11 -20 q-4 -4 -14 -4q-8 0 -16 5.5t-8 12.5zM1575 473q0 10 7.5 15.5t16.5 5.5t16 -6.5t7 -16.5q0 -9 -7.5 -15.5t-17.5 -6.5q-22 0 -22 24zM1589 508l4 18q6 6 17 6q9 0 16.5 -5.5t7.5 -12.5l-4 -14q-11 14 -24 14q-11 0 -17 -6zM1616 338q15 -6 43 -8q12 -1 27 -1q20 0 45 1 q44 2 55 2q5 10 13 24t11 20.5t7 20t6 31.5q4 28 -6 27q-7 -2 -13 -17q-8 -19 -13 -9q-4 7 -3 26q2 27 -9 30q-5 2 -9 -8l-1 -4q-10 -38 -15.5 -35.5t-2.5 41.5q2 27 -9 33q-6 4 -11 -11q-1 -4 -2 -9q-9 -43 -18 -41q-11 3 -11 51q0 41 -12 42q-14 1 -20 -49q-1 -4 -1 -8 q-3 -37 -18 -80t-33 -69z" />
<glyph unicode="c" horiz-adv-x="2048" d="M672 571q0 30 29.5 68t64.5 51q7 3 20 -14.5t13 -28.5q0 -10 -17 -25t-30 -20q-17 -8 -17 4q0 3 6.5 7.5t15 9.5t11.5 8q4 4 0 10t-10 4q-9 -2 -24 -17t-15 -30q0 -6 6.5 -12.5t13.5 -5.5q2 0 34 17t58 17q11 0 11 9q0 8 -4 12q-62 71 -62 172q0 64 25.5 126.5t53 125.5 t30.5 123q0 4 -6.5 5t-12.5 -1.5t-6 -7.5q0 -19 -6 -31q-6 -7 -38 -1.5t-42 11.5q-21 9 -31 43q-19 -3 -30 8q-7 6 -11 27.5t-4.5 53t0 60t1.5 58t1 37.5q51 30 149 46.5t193 16.5q186 0 291 -63q0 -24 2 -64t2 -55q0 -91 -26 -100q-4 -33 -15 -49q-5 -7 -24 -11 q0 -31 26 -119t52 -201t26 -204q0 -254 -84 -686q-61 0 -61 -72q0 -22 12 -38.5t27 -16.5q-3 -6 -17 -6q-32 0 -49.5 28.5t-19.5 68.5q-1 13 -1 27q0 27 3 53q5 40 16 67q-15 42 -15 98q0 61 19 110q-19 38 -19 67.5t13.5 49.5t42.5 41q4 3 12 7t10 6.5t1 7.5q-2 7 -12.5 6 t-18.5 -8q-30 -20 -82 -63.5t-89 -66t-71 -22.5q-41 0 -82 17.5t-41 52.5q58 0 105 26q117 69 188 99q6 2 7 6.5t-2.5 8t-10.5 1.5q-6 -1 -32 -12.5t-74 -35t-93 -50.5q-40 -21 -84 -21q-30 0 -63 18t-33 40q0 11 10 16l103 41q69 30 94 47q19 13 10 19.5t-24 -3.5 q-40 -27 -103.5 -53.5t-97.5 -26.5q-37 0 -67.5 21.5t-30.5 60.5zM724 1300q2 -28 9 -43q26 18 69.5 33.5t80.5 18.5q56 5 56 20q1 12 -42 12q-52 0 -51 12q1 9 41 17q21 4 21 12q-1 10 -26 11h-8q-44 -3 -41 3q2 6 35 15q19 5 11 13q-8 7 -29 6q-30 -2 -28 7q1 4 12 9 q23 9 15 15q-6 6 -26 3q-18 -2 -31.5 -6t-20 -7t-20.5 -11t-24 -13q0 -11 -2 -55q-1 -25 -1 -45q-1 -15 0 -27zM727 553q-1 -18 11 -31.5t30 -15.5l27 8q-26 3 -37.5 13t-14.5 34zM762 1237q0 -46 22 -57q55 26 139 40.5t144 14.5q107 0 213 -47q10 13 10 49q-63 55 -233 55 q-85 0 -178 -15.5t-117 -39.5zM805 1227q0 10 4 14l20 10q-6 -9 -6 -18q0 -19 15 -23l-15 -8q-7 0 -12.5 8.5t-5.5 16.5zM827 453q-4 -20 12.5 -33.5t39.5 -11.5l26 8q-32 2 -47 11t-14 34zM844 1239q0 10 6.5 17.5t15.5 7.5q10 0 16.5 -7t6.5 -16t-5.5 -16.5t-15.5 -7.5 q-24 0 -24 22zM895 1272l14 4q7 0 13 -8t6 -17q0 -10 -6 -16l-19 -4q6 6 6 16q0 15 -14 25zM944 358q-4 -20 12 -33.5t39 -11.5l27 9q-32 2 -47 11t-14 34zM1249 -115q0 47 41 47q-11 -47 -16 -86q-25 0 -25 39z" />
<glyph unicode="d" horiz-adv-x="2048" d="M672 641q0 91 26 204t52 201t26 119q-19 4 -24 11q-11 16 -15 49q-26 9 -26 100q0 15 2 55t2 64q105 63 291 63q95 0 193 -16.5t149 -46.5q0 -8 1 -37.5t1 -58v-60t-4 -53t-11 -27.5q-11 -11 -30 -8q-10 -34 -31 -43q-10 -6 -42 -11.5t-38 1.5q-6 12 -6 31q0 5 -6 7.5 t-12.5 1.5t-6.5 -5q3 -60 30.5 -123t53 -125.5t25.5 -126.5q0 -101 -62 -172q-4 -4 -4 -12q0 -9 11 -9q26 0 58 -17t34 -17q7 -1 13.5 5.5t6.5 12.5q0 15 -15 30t-24 17q-6 2 -10 -4t0 -10q3 -3 11.5 -8t15 -9.5t6.5 -7.5q0 -12 -17 -4q-13 5 -30 20t-17 25q0 11 13 28.5 t20 14.5q35 -13 64.5 -51t29.5 -68q0 -39 -30.5 -60.5t-67.5 -21.5q-34 0 -97.5 26.5t-103.5 53.5q-15 10 -24 3.5t10 -19.5q48 -34 189 -85l8 -3q10 -5 10 -16q0 -22 -33 -40t-63 -18q-44 0 -84 21q-45 27 -93 50.5t-74 35t-32 12.5q-7 2 -10.5 -1.5t-2.5 -8t7 -6.5 q71 -30 188 -99q47 -26 105 -26q0 -35 -41 -52.5t-82 -17.5q-34 0 -71 22.5t-89 66t-82 63.5q-8 7 -18.5 8t-12.5 -6q-1 -5 1 -7.5t10 -6.5t12 -7q29 -21 42.5 -41t13.5 -49.5t-19 -67.5q19 -49 19 -110q0 -56 -15 -98q11 -27 16 -67q3 -27 3 -53q-1 -13 -1 -27 q-2 -40 -19.5 -68.5t-49.5 -28.5q-14 0 -17 6q15 0 27 16.5t12 38.5q0 72 -61 72q-84 432 -84 686zM758 -68q41 0 41 -47q0 -39 -25 -39q-5 39 -16 86zM758 1237q0 -36 10 -49q106 47 213 47q60 0 144 -14.5t139 -40.5q22 11 22 57q-24 24 -117 39.5t-178 15.5 q-170 0 -233 -55zM1026 322l27 -9q23 -2 39 11.5t12 33.5l-17 9q1 -25 -14 -34t-47 -11zM1109 1329q0 -15 56 -20q37 -3 80.5 -18.5t69.5 -33.5q7 15 9 43q1 12 0 27q0 20 -1 45q-2 44 -2 55q-10 5 -24 13t-20.5 11t-20 7t-31.5 6q-26 3 -28 -5q-1 -6 17 -13q21 -8 9 -14 q-7 -3 -25 -2q-27 2 -30 -9q-2 -5 8 -9l4 -1q38 -10 35.5 -15.5t-41.5 -2.5q-25 2 -33 -8q-5 -8 12 -13l8 -2q43 -9 41 -18q-3 -11 -51 -11q-43 0 -42 -12zM1120 1251q0 9 6 17t13 8l14 -4q-14 -10 -14 -25q0 -10 6 -16l-19 4q-6 6 -6 16zM1143 416l26 -8q23 -2 39.5 11.5 t12.5 33.5l-17 8q1 -25 -14 -34t-47 -11zM1159 1241q0 9 6.5 16t16.5 7q9 0 15.5 -7.5t6.5 -17.5q0 -22 -24 -22q-10 0 -15.5 7.5t-5.5 16.5zM1210 1210q15 4 15 23q0 9 -6 18l20 -10q4 -4 4 -14q0 -8 -5.5 -16.5t-12.5 -8.5zM1253 514l27 -8q18 2 30 15.5t11 31.5l-16 8 q-3 -24 -14.5 -34t-37.5 -13z" />
<glyph unicode="e" horiz-adv-x="2048" d="M672 791q0 254 84 686q61 0 61 71q0 22 -12 39t-27 17q3 6 17 6q32 0 49.5 -28.5t19.5 -68.5q1 -13 1 -27q0 -27 -3 -53q-5 -40 -16 -67q15 -42 15 -98q0 -61 -19 -111q19 -38 19 -67.5t-13.5 -49.5t-42.5 -41q-4 -3 -9.5 -6t-8 -4t-4.5 -3.5t-1 -6.5q2 -7 12.5 -6 t18.5 8q30 20 82 63.5t89 66t71 22.5q41 0 82 -17.5t41 -52.5q-56 0 -105 -27q-111 -66 -188 -98q-6 -2 -7 -6.5t2.5 -8t10.5 -1.5q6 1 32 12.5t74 35t93 50.5q38 20 84 20q30 0 63 -17.5t33 -39.5q0 -11 -10 -16l-103 -41q-69 -30 -94 -47q-20 -14 -9 -20q10 -6 23 3 q40 27 103.5 53.5t97.5 26.5q37 0 67.5 -21.5t30.5 -60.5q0 -30 -29.5 -68t-64.5 -51q-7 -3 -20 14.5t-13 28.5q0 10 17 25t30 20q6 3 10 2.5t5.5 -2.5t1.5 -4q0 -3 -6.5 -7.5t-15 -9t-11.5 -7.5q-4 -4 0 -10.5t10 -4.5q9 2 24 17.5t15 30.5q0 6 -6.5 12.5t-13.5 5.5 q-2 0 -34 -17.5t-58 -17.5q-11 0 -11 -8t4 -12q62 -71 62 -172q0 -64 -25.5 -126.5t-53 -125.5t-30.5 -123q0 -4 6.5 -5t12.5 1.5t6 7.5q0 19 6 31q6 7 38 1t42 -12q21 -9 31 -43q19 3 30 -8q7 -6 11 -27.5t5 -52.5t0 -59.5t-2 -58t-1 -37.5q-51 -30 -149.5 -47t-192.5 -17 q-184 0 -291 64q0 24 -2 63.5t-2 54.5q0 92 26 101q4 33 15 49q4 6 24 10q0 31 -26 119.5t-52 201.5t-26 204zM758 195q65 -56 233 -56q84 0 177.5 16t117.5 40q0 46 -22 57q-55 -26 -139 -40.5t-144 -14.5q-107 0 -213 47q-10 -13 -10 -49zM758 1499q11 47 16 86 q25 0 25 -39q0 -47 -41 -47zM1026 1110q32 -2 47 -11t14 -34l17 8q4 20 -12 33.5t-39 11.5zM1109 104q-3 -14 42 -14q52 0 51 -12q-1 -9 -41 -17q-22 -5 -21 -12q3 -10 29 -10h5q41 3 41 -3q1 -6 -35 -16q-18 -5 -11.5 -12t29.5 -6q30 2 28 -7q-1 -4 -12 -9q-17 -6 -17 -13 q0 -10 28 -6q18 2 31.5 6t20 7t20.5 11t24 13q0 11 2 55q1 25 1 45v27q-2 28 -9 43q-26 -18 -69.5 -33t-80.5 -18q-54 -5 -56 -19zM1120 180q0 11 6 17l19 4q-6 -6 -6 -17q0 -14 14 -24l-14 -4q-7 0 -13 7.5t-6 16.5zM1143 1016q32 -2 47 -11t14 -34l17 8q4 20 -12.5 33.5 t-39.5 11.5zM1159 190q0 9 5.5 17t15.5 8q24 0 24 -22q0 -10 -6.5 -17.5t-15.5 -7.5q-10 0 -16.5 6.5t-6.5 15.5zM1210 221l15 8q7 0 12.5 -8t5.5 -16q0 -11 -4 -15l-20 -10q6 9 6 19q0 18 -15 22zM1253 918q25 -3 37 -13.5t15 -34.5l16 9q1 18 -11 31.5t-30 15.5z" />
<glyph unicode="f" horiz-adv-x="2048" d="M672 860q0 39 30.5 60.5t67.5 21.5q34 0 97.5 -26.5t103.5 -53.5q16 -11 25 -2q7 7 -11 19q-48 34 -189 85l-8 3q-10 5 -10 16q0 22 33 39.5t63 17.5q46 0 84 -20q45 -27 93 -50.5t74 -35t32 -12.5q7 -2 10.5 1.5t2.5 8t-7 6.5q-77 32 -188 98q-49 27 -105 27 q0 35 41 52.5t82 17.5q34 0 71 -22.5t89 -66t82 -63.5q8 -7 18.5 -8t12.5 6q1 5 -1.5 7t-9.5 6t-12 7q-29 21 -42.5 41t-13.5 49.5t19 67.5q-19 49 -19 111q0 56 15 98q-11 27 -16 67q-3 27 -3 53q0 14 1 27q2 40 19.5 68.5t49.5 28.5q14 0 17 -6q-15 0 -27 -17t-12 -39 q0 -71 61 -71q84 -432 84 -686q0 -91 -26 -204t-52 -201.5t-26 -119.5q20 -4 24 -10q11 -16 15 -49q26 -9 26 -101q0 -15 -2 -54.5t-2 -63.5q-107 -64 -291 -64q-94 0 -192.5 17t-149.5 47q0 8 -1 37.5t-1.5 58t0 59.5t4.5 52.5t11 27.5q11 11 30 8q10 34 31 43q10 6 42 12 t38 -1q6 -12 6 -31q0 -5 6 -7.5t12.5 -1.5t6.5 5q-3 60 -30.5 123t-53 125.5t-25.5 126.5q0 101 62 172q4 4 4 12t-11 8q-26 0 -58 17.5t-34 17.5q-7 1 -13.5 -5.5t-6.5 -12.5q0 -15 15 -30.5t24 -17.5q6 -2 10 4.5t0 10.5q-3 3 -11.5 7.5t-15 9t-6.5 7.5q0 2 1.5 4t5.5 2.5 t10 -2.5q13 -5 30 -20t17 -25q0 -11 -13 -28.5t-20 -14.5q-35 13 -64.5 51t-29.5 68zM724 131v-27q0 -20 1 -45q2 -44 2 -55q10 -5 24 -13t20.5 -11t20 -7t31.5 -6q28 -4 28 6q0 7 -17 13q-21 8 -9 14q7 3 25 2q30 -2 31 9q0 6 -13 9q-36 10 -35 16q0 6 41 3q27 -2 33 9 q4 6 -11 11l-9 2q-43 9 -41 18q4 11 51 11q45 0 42 14q-4 14 -56 19q-37 3 -80.5 18t-69.5 33q-7 -15 -9 -43zM727 879l16 -9q3 24 15 34.5t37 13.5l-27 8q-18 -2 -30 -15.5t-11 -31.5zM762 195q24 -24 117.5 -40t177.5 -16q168 0 233 56q0 36 -10 49q-106 -47 -213 -47 q-60 0 -144 14.5t-139 40.5q-22 -11 -22 -57zM805 205q0 8 5.5 16t12.5 8l15 -8q-15 -4 -15 -22q0 -10 6 -19l-20 10q-4 4 -4 15zM827 979l17 -8q-1 25 14 34t47 11l-26 8q-23 2 -39.5 -11.5t-12.5 -33.5zM844 193q0 22 24 22q10 0 15.5 -8t5.5 -17t-6.5 -15.5t-16.5 -6.5 q-9 0 -15.5 7.5t-6.5 17.5zM895 160q14 10 14 24q0 11 -6 17l19 -4q6 -6 6 -17q0 -9 -6 -16.5t-13 -7.5zM944 1073l17 -8q-1 25 14 34t47 11l-27 8q-23 2 -39 -11.5t-12 -33.5zM1249 1546q0 39 25 39q5 -39 16 -86q-41 0 -41 47z" />
<glyph unicode="g" d="M102 928h516l160 491l160 -491h516l-416 -303l156 -490l-416 301l-416 -301l156 490z" />
<glyph unicode="h" d="M102 928h516l160 491l160 -491h516l-416 -303l156 -492l-416 303l-416 -303l156 492zM256 879l502 -162l-92 162h-410zM459 260l309 428l-182 -39zM778 504l332 -240l-313 426zM778 1260l2 -529l125 139zM803 717l172 -76l330 242z" />
<glyph unicode="i" d="M102 928h516l160 491l160 -491h516l-416 -303l156 -492l-416 303l-416 -303l156 492zM242 883l329 -240l-125 -393l332 242l332 -242l-125 393l330 240h-410l-127 387l-127 -387h-409zM348 848h328l102 309l103 -309h327l-264 -191l103 -319l-269 197l-268 -197l102 319z " />
<glyph unicode="j" d="M102 928h516l160 491l160 -491h516l-416 -303l156 -492l-416 303l-416 -303l156 492zM242 883l329 -240l-125 -393l332 242l332 -242l-125 393l330 240h-410l-127 387l-127 -387h-409zM571 643l129 88l-49 152l127 -97l127 97l-49 -152l129 -88h-160l-47 -151l-47 151 h-160z" />
<glyph unicode="k" d="M102 928h516l160 491l160 -491h516l-416 -303l156 -492l-416 303l-416 -303l156 492zM242 883l290 -213l70 213h-360zM446 250l293 213l-182 133zM571 643h160l47 -151l47 151h160l-129 88l49 152l-127 -97l-127 97l49 -152zM666 928h225l-113 342zM817 463l293 -213 l-111 346zM954 883l70 -213l291 213h-361z" />
<glyph unicode="l" d="M102 928h455l-51 155l131 -98l141 434l142 -434l131 98l-52 -155h455l-367 -269l132 -92h-162l137 -434l-363 264l-53 -153l-53 153l-363 -264l138 434h-162l131 92zM242 883l266 -195l104 74l-41 121h-329zM446 250l265 192l-41 125h-123zM676 958l102 -75l103 75 l-103 312zM846 442l264 -192l-100 317h-123zM944 762l105 -74l266 195h-330z" />
<glyph unicode="m" d="M102 928h516l160 491l160 -491h516l-416 -303l156 -492l-416 303l-416 -303l156 492zM537 786l149 -106l-57 -178l149 110l150 -110l-58 178l150 106h-178l-64 187l-63 -187h-178z" />
<glyph unicode="n" d="M102 506l293 211l-293 211h377l-119 368l306 -221l112 344l113 -344l305 221l-119 -368h377l-293 -211l293 -211h-377l119 -369l-305 221l-113 -344l-112 344l-306 -221l119 369h-377zM256 879l502 -162l-92 162h-410zM459 260l309 428l-182 -39zM778 504l332 -240 l-313 426zM778 1260l2 -529l125 139zM803 717l172 -76l330 242z" />
<glyph unicode="o" d="M102 506l293 211l-293 211h377l-119 368l306 -221l112 344l113 -344l305 221l-119 -368h377l-293 -211l293 -211h-377l119 -369l-305 221l-113 -344l-112 344l-306 -221l119 369h-377zM242 883l329 -240l-125 -393l332 242l332 -242l-125 393l330 240h-410l-127 387 l-127 -387h-409zM348 848h328l102 309l103 -309h327l-264 -191l103 -319l-269 197l-268 -197l102 319z" />
<glyph unicode="p" d="M102 506l293 211l-293 211h377l-119 368l306 -221l112 344l113 -344l305 221l-119 -368h377l-293 -211l293 -211h-377l119 -369l-305 221l-113 -344l-112 344l-306 -221l119 369h-377zM242 883l329 -240l-125 -393l332 242l332 -242l-125 393l330 240h-410l-127 387 l-127 -387h-409zM571 643l129 88l-49 152l127 -97l127 97l-49 -152l129 -88h-160l-47 -151l-47 151h-160z" />
<glyph unicode="q" d="M102 506l289 211l-289 211h377l-117 372l306 -223l110 342l111 -342l305 223l-119 -372h379l-291 -211l291 -211h-379l119 -373l-305 221l-111 -340l-110 340l-306 -221l117 373h-377zM242 551h252l24 74l-88 63zM242 883l290 -213l70 213h-360zM446 250l293 213 l-182 133zM446 1184l82 -256h90l35 104zM571 643h160l47 -151l47 151h160l-129 88l49 152l-127 -97l-127 97l49 -152zM666 928h225l-113 342zM705 383l73 -219l72 219l-72 53zM817 463l293 -213l-111 346zM903 1032l35 -104h90l82 256zM954 883l70 -213l291 213h-361z M1038 625l23 -74h254l-189 137z" />
<glyph unicode="r" d="M102 506l293 211l-293 211h377l-119 368l306 -221l112 344l113 -344l305 221l-119 -368h377l-293 -211l293 -211h-377l119 -369l-305 221l-113 -344l-112 344l-306 -221l119 369h-377zM338 854l276 -192l-108 -322l272 203l273 -203l-109 322l277 192h-334l-107 326 l-106 -326h-334z" />
<glyph unicode="s" horiz-adv-x="1433" d="M0 0v31q0 129 59.5 240.5t162.5 183t229 86.5q17 140 108 254q-35 18 -61 18q-74 0 -109 -32t-35 -87q-25 7 -39 38t-14 65q0 46 35.5 87.5t99.5 59.5q-135 72 -135 189q63 0 107.5 -34.5t80.5 -101.5q18 64 60 100t88 36q34 0 64.5 -14.5t37.5 -39.5q-118 0 -118 -143 q0 -31 16 -64q111 91 256 109q23 193 168 323t342 130h31v-168h-31q-145 0 -245.5 -100.5t-100.5 -245.5v-101h-96q-122 0 -216 -74l50 -49q79 60 180 60h131v164q0 124 86 210.5t211 86.5h31v-29h-31q-113 0 -190.5 -78t-77.5 -190v-193h-160q-88 0 -158 -51 q49 -43 103 -43q45 0 104 22q-18 -50 -18 -123q0 -72 18 -122q-50 18 -123 18t-123 -18q19 71 19 104q0 53 -41 100q-49 -68 -49 -155v-160h-193q-112 0 -190 -77.5t-78 -190.5v-31h-29v31q0 125 86.5 211t210.5 86h164v131q0 103 57 178l-47 51q-74 -93 -74 -215v-96h-100 q-145 0 -245.5 -100.5t-100.5 -245.5v-31h-168zM0 319v1115h1114q-121 -65 -201 -168h-745v-746q-103 -80 -168 -201zM217 555v662h662l-19 -29h-614v-615z" />
<glyph unicode="t" horiz-adv-x="1433" d="M0 0v244q14 -2 41 -2q188 0 319.5 131.5t131.5 318.5q0 91 -22 152t-64 61q-26 0 -46 -24t-32 -54q-27 27 -27 67q0 10 2 20q8 53 47 81q-86 73 -86 174q101 0 174 -86q28 39 81 47q11 2 21 2q39 0 66 -26q-30 -12 -54 -32t-24 -46q0 -42 61 -64t152 -22q187 0 319 132 t132 319q0 27 -2 41h244v-168h-86q-41 -213 -211.5 -352.5t-395.5 -139.5q-41 0 -88 6q6 -47 6 -88q0 -225 -139 -395t-352 -211v-86h-168zM0 356v240q52 -42 133 -46q8 0 15 -1q72 0 126 31q-123 52 -198.5 162.5t-75.5 246.5q0 166 106 291h-106v154h154v-107 q126 107 290 107q136 0 247 -76t163 -199q31 54 31 126q-1 7 -1 15q-4 82 -46 134h239q2 -14 2 -41q0 -92 -49 -174q-48 -81 -134 -127q-66 -35 -139 -36q-21 0 -42 3q-22 93 -97 150t-174 57q-115 0 -195.5 -80.5t-80.5 -196.5q0 -99 57 -173.5t150 -96.5q3 -21 3 -42 q0 -73 -36 -139q-46 -86 -127.5 -135t-173.5 -49q-27 0 -41 2zM217 0v47q216 58 354 236.5t138 408.5v33h32q230 0 408.5 138t236.5 354h48v-29h-27q-67 -216 -250.5 -354t-415.5 -138h-4v-4q0 -232 -137.5 -415t-353.5 -250v-27h-29z" />
<glyph unicode="u" horiz-adv-x="1433" d="M0 0v723q0 130 60 194t157 64q91 0 155 -63t64 -154q0 -58 -35 -100.5t-98 -42.5h-4q25 -18 25 -46q0 -29 -24.5 -43.5t-53.5 0.5v-532h-29v575q0 21 12.5 35t30.5 17q-57 22 -57 84q0 41 27 61q19 15 43 14q9 0 20 -2q0 32 -21.5 51t-58.5 19q-42 0 -66 -30t-24 -91 q0 -68 22.5 -255t22.5 -343v-135h-168zM0 1079q0 29 18.5 47.5t49.5 18.5q19 0 37.5 -3t39.5 -12.5t33.5 -14.5t36 -21.5t30.5 -21t33.5 -24.5t28.5 -22q-57 10 -99 10q-20 0 -36 -2t-50.5 -11t-53.5 -9q-31 0 -49.5 18t-18.5 47zM0 1356q0 37 20 57q21 21 58 21 q95 0 164 -140q70 -148 139 -217q103 -103 299 -172q-45 -45 -66 -51q50 -50 66 -100q-52 17 -100 65q-6 -19 -52 -65q-69 196 -172 299q-69 69 -217 139q-139 68 -139 164zM289 1366q0 31 18 49.5t47 18.5t47.5 -18.5t18.5 -49.5q0 -19 -9.5 -53.5t-11.5 -50.5 q-2 -14 -2 -32q0 -43 11 -104q-3 4 -19.5 25.5t-21.5 28.5t-19 27t-19.5 30.5t-15 29.5t-13.5 33t-7.5 31.5t-3.5 34.5zM453 1217q0 97 64 157t194 60h723v-168h-136q-156 0 -343 22.5t-255 22.5q-61 0 -90.5 -24t-29.5 -66q0 -37 18.5 -58.5t50.5 -21.5q-2 10 -2 19 q0 24 15 44q21 27 61 27q59 0 82 -60q3 20 17.5 33t35.5 13h576v-29h-533q15 -29 0 -53.5t-43 -24.5q-31 0 -45 25v-5q0 -63 -42.5 -98t-100.5 -35q-90 0 -153.5 64.5t-63.5 155.5z" />
<glyph unicode="v" horiz-adv-x="1433" d="M0 524q0 59 23.5 113t47 103.5t23.5 95.5q0 43 -26.5 88t-26.5 69q117 -23 158 -73q30 62 116 81q2 -14 2 -27q0 -53 -30 -93q7 1 13 1q52 0 98 -35q52 -39 55 -97q-65 24 -148 24q-81 0 -141 -63.5t-72 -169.5q16 33 64 39q12 1 23 1q33 0 54 -14q-54 -6 -87 -37 t-33 -81q0 -42 19.5 -73.5t60.5 -31.5q22 0 22 12q0 7 -9.5 15t-19.5 23t-10 38q0 32 21 52t55 20q37 0 59.5 -27t22.5 -63q0 -57 -40 -91t-91 -34q-21 0 -39 6q14 -47 14 -113q0 -90 -35 -135q34 22 53 70.5t19 111.5v19h21q68 0 107.5 44t39.5 116q0 28 -10 73q8 -2 26 -2 q104 0 175 82t71 193q0 25 -2 37q18 -3 37 -3q111 0 192.5 71t81.5 175q0 19 -2 27q45 -10 74 -10q72 0 116 39.5t44 107.5v21h18q63 0 111.5 18.5t70.5 52.5q-48 -37 -135 -37q-69 0 -112 17q6 -18 6 -41q0 -51 -34 -90t-91 -39q-36 0 -63 22.5t-27 59.5q0 34 19.5 54.5 t51.5 20.5q23 0 38 -9.5t23 -19t15 -9.5q13 0 13 22q0 41 -31.5 60.5t-73.5 19.5q-50 0 -81.5 -33.5t-37.5 -87.5q-14 21 -14 53q0 11 2 23q6 48 39 65q-107 -12 -170.5 -72t-63.5 -141q0 -79 25 -147q-58 3 -97 55q-35 46 -35 98q0 7 1 13q-42 -31 -95 -31q-13 0 -26 2 q19 86 82 117q-51 42 -74 158q24 0 69.5 -27t88.5 -27q46 0 95 23.5t103 47.5t113 24q54 0 110 -21t94 -44.5t88 -37.5q29 -8 57 -8q20 0 40 4q-1 9 -1 17q0 26 12 46q16 26 55 27q70 0 70 -74q0 -53 -38 -90t-87 -52t-101 -15q-3 -76 -54.5 -119t-123.5 -43q-26 0 -53 6 q0 -115 -87 -192.5t-216 -77.5q0 -129 -78 -216t-193 -87q7 -32 7 -54q0 -72 -43 -123.5t-119 -54.5q0 -51 -15 -100t-52.5 -87t-90.5 -38q-74 0 -74 70q0 38 26 54q20 12 47 12q8 0 17 -1q4 25 4 45q0 18 -3 34q-7 32 -25 71t-36 71.5t-32 77.5t-14 90zM0 1434 q168 -35 264 -209q0 50 34 98.5t99 65.5q-28 -89 -28 -146q0 -128 100 -233t221 -105q55 0 103.5 20t48.5 62q0 24 -19 35.5t-41.5 13t-41.5 13t-19 36.5q0 9 6 21q29 -17 55 -12q-24 31 -24 92q0 56 47 76q-6 -30 -6 -68q0 -21 17 -36.5t37 -26t37 -34.5t17 -59 q0 -95 -63.5 -146.5t-157.5 -51.5q-72 0 -104 12q12 -32 12 -104q0 -94 -52 -158t-147 -64q-35 0 -59 17t-34 37.5t-25.5 37.5t-36.5 17q-38 0 -68 -6q20 47 76 47q60 0 92 -25q5 27 -12 56q12 6 20 6q25 0 36.5 -19t13 -41.5t13 -41.5t35.5 -19q42 0 62 48t20 103 q0 121 -105 221.5t-233 100.5q-53 0 -145 -29q17 65 65.5 99t98.5 34q-174 96 -209 265z" />
<glyph unicode="w" horiz-adv-x="1433" d="M0 0v1165q96 -217 265 -362.5t392 -188.5q-81 -57 -150.5 -121t-132 -141.5t-103 -168t-50.5 -183.5h-221zM0 1434q207 -22 371 -127t258.5 -265.5t115.5 -353.5q-207 22 -371 127t-258.5 265.5t-115.5 353.5zM51 51h125q53 282 367 539q-307 99 -492 373v-912zM63 1370 q45 -236 209.5 -404.5t409.5 -213.5q-45 236 -209.5 404.5t-409.5 213.5zM92 92v748q152 -175 371 -265q-126 -109 -208 -225.5t-112 -257.5h-51zM104 1329q207 -50 349 -193.5t188 -342.5q-207 50 -349 193.5t-188 342.5zM123 139q64 221 283 426q-160 77 -283 197v-623z M141 1292q52 -164 173 -287t290 -176q-52 164 -173 287t-290 176zM155 405.5q0 11.5 1.5 37.5t6 42t13.5 34.5t23 31.5q-39 44 -39 107v12q74 -30 74 -76q0 -9 -3 -19q14 17 33 17q15 0 26 -12t11 -27t-11 -26t-26 -11q-19 0 -31 12q6 -31 6 -51.5t-12.5 -44.5t-23 -38 t-25.5 -32t-20 -26q0 3 -1.5 30.5t-1.5 39zM227 1196l13 12l47 -47q17 25 30 25q-3 -19 3.5 -42t13.5 -30l18 -18q28 17 51 -6q24 -24 7 -52l18 -18q7 -7 30 -13t42 -3q0 -14 -25 -31l47 -47l-12 -13l-47 48q-17 -25 -31 -25q3 19 -3 42t-13 30l-19 18q-26 -19 -51 6t-6 51 l-18 19q-7 7 -30 13t-42 3q0 15 24 31zM268 1434h1166v-222q-93 -10 -183.5 -50.5t-168 -103t-142 -132t-121.5 -150.5q-43 223 -188.5 392.5t-362.5 265.5zM471 1382q275 -186 373 -491q256 313 538 366v125h-911zM594 1341h747v-51q-141 -30 -258 -111.5t-225 -207.5 q-90 219 -264 370zM672 1311q118 -121 196 -283q205 219 426 283h-622zM764 1274h12q63 0 107 -39q13 14 31.5 23t34.5 13.5t42 6t37.5 1.5t39 -1.5t30.5 -1.5q-8 -5 -26 -20t-32 -25.5t-38.5 -23t-45 -13t-51.5 5.5q13 -13 13 -31q0 -15 -11 -25.5t-26 -10.5t-27 10.5 t-12 25.5q0 20 16 33q-9 -3 -18 -3q-46 0 -76 75z" />
<glyph unicode="x" horiz-adv-x="1435" d="M0 995q0 182 129.5 311.5t310.5 129.5q124 0 228.5 -64.5t160.5 -171.5h361l110 129l136 -141v-385l-136 -141l-110 129h-361q-64 -122 -184 -185v-360l129 -111l-141 -135h-385l-142 135l130 111v360q-107 56 -171.5 160.5t-64.5 228.5zM33 995q0 -120 64.5 -219 t170.5 -149v-396l-112 -98l108 -100h350l111 100l-113 98v396q134 64 197 196h395l99 -112l100 110v350l-100 109l-99 -113h-395q-50 106 -149.5 171t-219.5 65q-167 0 -287 -120.5t-120 -287.5zM100 995q0 141 99.5 240.5t240.5 99.5q116 0 207.5 -70t122.5 -178h477l70 82 l29 -30v-287l-29 -31l-70 82h-477q-25 -86 -88.5 -149t-149.5 -88v-478l82 -69l-30 -29h-287l-31 29l82 69v478q-109 31 -178.5 122t-69.5 207zM158 1044l182 -94l-31 -198l137 137l195 -94l-94 194l137 137l-199 -30l-94 182l-31 -203z" />
<glyph unicode="y" horiz-adv-x="1433" d="M0 1135q0 125 87 212t212 87q166 0 291 -148l143 144l68 -68q63 -63 120 -78.5t185 -15.5h328v-563h-705v-705h-563v328q0 128 -15.5 185t-78.5 120l-68 67l143 144q-147 124 -147 291zM61 1135q0 -153 125 -256l41 39q-102 85 -110 215q0 77 53.5 130.5t130.5 53.5 q82 -6 147 -49.5t104 -111.5t59 -148.5t20 -165.5l55 2q0 70 -14 142t-45 142t-75 124t-109.5 87t-143.5 33q-98 0 -168 -69.5t-70 -167.5zM70 700l16 -16q83 -83 103 -141t20 -185v-315h477v662h-55v-607h-367v320q0 174 -110 284l383 383q-12 26 -29 54zM311 375 q8 -22 41 -27q10 -1 19 -1q23 0 45 9q-20 -28 -38 -71.5t-18 -71.5q0 -33 21 -52.5t47 -19.5q20 0 35.5 14.5t15.5 39.5q0 13 -4.5 23t-8 14t-13.5 14q-11 11 -11 33q0 34 27 69q35 -40 70 -40q7 0 14 1q-29 34 -41 63.5t-12 82.5q0 39 11 82t11 57q0 41 -24.5 69.5 t-71.5 28.5q-33 0 -60.5 -19.5t-27.5 -51.5q0 -25 16 -40.5t39 -15.5q24 0 44.5 16t27.5 19q6 -9 6 -26q0 -32 -25 -93q-10 -29 -49 -58.5t-86 -47.5zM315 801q126 -53 275 -53h801v477h-316q-127 0 -184.5 20t-140.5 103l-17 16l-117 -117q18 -26 29 -53l86 86 q111 -111 285 -111h319v-366h-743q-133 0 -238 41zM741 1008q0 -47 29 -72t70 -25q14 0 57 11.5t82 11.5q53 0 82 -12t63 -41q1 7 1 14q0 35 -40 70q33 26 70 26q23 0 33 -10l5 -5l5 -5t5 -4.5t6 -4.5l6 -3t7 -3t7.5 -1.5t9.5 -0.5q25 0 39 16t14 36q0 26 -19 46.5t-52 20.5 q-29 0 -72.5 -18t-71.5 -37q9 22 9 47q0 8 -1 16q-4 33 -26 41q-18 -47 -48 -86t-59 -49q-59 -24 -92 -24q-16 0 -26 6q3 7 18.5 27t15.5 44q0 23 -15 39.5t-40 16.5q-32 0 -52 -27.5t-20 -60.5z" />
<glyph unicode="z" horiz-adv-x="1433" d="M0 342v207q57 -51 133 -51q68 0 109 47t41 123h16q0 -127 -83.5 -221.5t-215.5 -104.5zM14 225q20 -4 41 -4q43 -1 85 17q62 26 102 79.5t41 118.5h16q0 -243 -193 -362q-68 56 -92 151zM20 1104q0 27 16 45t40 18q21 0 36.5 -14t18.5 -35h88q-2 36 -22 121 q82 -20 118 -22v83q-22 5 -35.5 20t-13.5 38q0 24 18.5 39.5t45.5 15.5q25 0 43 -15.5t18 -39.5q0 -23 -13 -38t-34 -20v-83q41 0 121 22q-19 -80 -21 -121h791q55 0 104.5 35t69.5 90q25 -67 25 -139q0 -73 -25 -137q-20 54 -69.5 88.5t-104.5 34.5h-791q2 -45 21 -121 q-85 20 -121 22v-792q0 -55 34.5 -104.5t88.5 -69.5q-64 -25 -137 -25t-140 25q54 20 89.5 70t35.5 104v792q-36 -2 -118 -22q20 81 22 121h-88q-3 -22 -18 -35t-37 -13q-25 0 -40.5 17.5t-15.5 44.5zM29 788q0 40 27.5 69.5t72.5 29.5q36 0 58 -21.5t22 -54.5 q0 -32 -20 -51t-54 -19q-15 0 -15 14.5t15 14.5q43 0 43 43q0 45 -51 45q-31 0 -49.5 -20t-18.5 -50q0 -40 22.5 -60.5t59.5 -20.5q59 0 87 34.5t28 92.5v88h18v-88q0 -71 -33.5 -114.5t-99.5 -43.5q-47 0 -79.5 29t-32.5 83zM295 1102q0 -15 11 -25t26 -10t25 10t10 25 t-10 26t-25 11t-26 -11t-11 -26zM360 436h15q1 -98 87 -164q66 -51 141 -51q22 0 44 4q-26 -92 -92 -151q-195 118 -195 362zM360 668h15q0 -76 41.5 -123t109.5 -47q76 0 133 51v-207q-133 10 -216 104t-83 222zM393 895h17q0 -39 33 -77t77 -38q58 0 95.5 33.5t37.5 101.5 q0 44 -36.5 77.5t-75.5 33.5v16q76 0 126 -48t50 -126q0 -66 -42.5 -107.5t-109.5 -41.5q-77 0 -124.5 50t-47.5 126zM512 1159v19h88q58 0 92.5 28t34.5 86q0 37 -21 59.5t-61 22.5q-30 0 -50 -18t-20 -49q0 -22 11.5 -37t34.5 -15q43 0 43 43q0 15 14 15t14 -15 q0 -33 -19 -53t-50 -20q-33 0 -54.5 22t-21.5 58q0 45 29 72.5t69 27.5q54 0 83.5 -33t29.5 -80q0 -66 -43.5 -99.5t-114.5 -33.5h-88zM766 1059v14q128 0 222 -83t104 -216h-207q51 57 51 133q0 68 -47 110t-123 42zM766 1135v16q77 0 123.5 41t46.5 108q0 77 -51 134h207 q-10 -132 -104.5 -215.5t-221.5 -83.5zM997 1059v14q246 0 363 -194q-60 -67 -152 -93q4 22 4 44q0 75 -50 142q-66 86 -165 87zM997 1135v16q65 1 119 41q52 39 78 101q17 42 18 85q0 20 -4 41q93 -24 152 -92q-118 -192 -363 -192z" />
<glyph unicode="&#x2000;" horiz-adv-x="930" />
<glyph unicode="&#x2001;" horiz-adv-x="1860" />
<glyph unicode="&#x2002;" horiz-adv-x="930" />
<glyph unicode="&#x2003;" horiz-adv-x="1860" />
<glyph unicode="&#x2004;" horiz-adv-x="620" />
<glyph unicode="&#x2005;" horiz-adv-x="465" />
<glyph unicode="&#x2006;" horiz-adv-x="310" />
<glyph unicode="&#x2007;" horiz-adv-x="310" />
<glyph unicode="&#x2008;" horiz-adv-x="232" />
<glyph unicode="&#x2009;" horiz-adv-x="372" />
<glyph unicode="&#x200a;" horiz-adv-x="103" />
<glyph unicode="&#x202f;" horiz-adv-x="372" />
<glyph unicode="&#x205f;" horiz-adv-x="465" />
<glyph unicode="&#x25fc;" horiz-adv-x="1433" d="M0 0v1434h1434v-1434h-1434z" />
</font>
</defs>
</svg>
